<?xml version="1.0" encoding="iso-8859-1"?>
<!-- Uploaded to: SVG Repo, www.svgrepo.com, Generator: SVG Repo Mixer Tools -->
<svg height="800px" width="800px" version="1.1" id="Capa_1" xmlns="http://www.w3.org/2000/svg" xmlns:xlink="http://www.w3.org/1999/xlink" 
	 viewBox="0 0 14.216 14.216" xml:space="preserve">
<g>
	<g>
		<path style="fill:#030104;" d="M11.102,8.669c0.139-1.479-1.479-1.617-1.479-1.617c-0.462-1.341-1.54-0.647-1.54-0.647
			s0.238-5.177,0.146-5.777C8.175,0.276,7.555-0.488,7.173,0.45c-0.226,0.651-0.59,6.415-0.999,6.006
			C5.698,5.98,5.236,1.373,5.11,1.353C5.006,0.874,4.011-0.055,3.853,1.687C4.17,5.859,4.261,6.683,4.261,6.683
			C4.03,7.237,3.62,8.623,3.62,8.623c-0.878,0.971-0.462,1.664-0.462,1.664c0.739,1.294,2.258,3.004,2.258,3.004
			c0.647,0.555,0.277,0.878,0.277,0.878l4.483,0.047l0.247-0.832C11.441,11.442,11.102,8.669,11.102,8.669z"/>
	</g>
</g>
</svg>